<svg width="87" height="24" viewBox="0 0 87 24" fill="none" xmlns="http://www.w3.org/2000/svg">
<g filter="url(#filter0_d_59_282)">
<path d="M4.9 15C4.83333 15 4.8 14.9667 4.8 14.9L4.84 1.16C4.84 1.10667 4.86667 1.08 4.92 1.08L8.66 1.06C9.39333 1.04667 10.06 1.22 10.66 1.58C11.2733 1.94 11.76 2.42667 12.12 3.04C12.48 3.64 12.66 4.30667 12.66 5.04V10.78C12.66 11.5533 12.4733 12.26 12.1 12.9C11.7267 13.5267 11.2267 14.0267 10.6 14.4C9.97333 14.7733 9.26667 14.9667 8.48 14.98L4.9 15ZM7.24 12.54H8.48C8.97333 12.54 9.38667 12.3667 9.72 12.02C10.0667 11.6733 10.24 11.26 10.24 10.78V5.02C10.24 4.59333 10.08 4.22667 9.76 3.92C9.45333 3.6 9.08667 3.44667 8.66 3.46L7.26 3.48L7.24 12.54ZM14.3136 15C14.2603 15 14.2336 14.9667 14.2336 14.9L14.2736 1.16C14.2736 1.10667 14.3003 1.08 14.3536 1.08H18.3936C19.1136 1.08 19.7736 1.26 20.3736 1.62C20.9869 1.96667 21.4736 2.44 21.8336 3.04C22.1936 3.62667 22.3736 4.29333 22.3736 5.04C22.3736 5.53333 22.3003 5.98 22.1536 6.38C22.0069 6.76667 21.8336 7.1 21.6336 7.38C21.4336 7.64667 21.2536 7.84667 21.0936 7.98C21.8136 8.78 22.1736 9.72 22.1736 10.8L22.1936 14.9C22.1936 14.9667 22.1603 15 22.0936 15H19.8336C19.7803 15 19.7536 14.98 19.7536 14.94V10.8C19.7536 10.32 19.5803 9.90667 19.2336 9.56C18.9003 9.2 18.4869 9.02 17.9936 9.02H16.6736L16.6536 14.9C16.6536 14.9667 16.6269 15 16.5736 15H14.3136ZM16.6736 6.62H18.3936C18.8069 6.62 19.1736 6.46667 19.4936 6.16C19.8136 5.85333 19.9736 5.48 19.9736 5.04C19.9736 4.61333 19.8136 4.24667 19.4936 3.94C19.1869 3.63333 18.8203 3.48 18.3936 3.48H16.6736V6.62ZM23.982 15C23.9154 15 23.882 14.9667 23.882 14.9L23.902 1.16C23.902 1.10667 23.9287 1.08 23.982 1.08H26.222C26.2754 1.08 26.302 1.10667 26.302 1.16L26.322 14.9C26.322 14.9667 26.2954 15 26.242 15H23.982ZM30.3213 15C30.2679 15 30.2346 14.9667 30.2212 14.9L27.4613 1.16C27.4479 1.10667 27.4746 1.08 27.5413 1.08H29.8013C29.8546 1.08 29.8879 1.10667 29.9013 1.16L31.5413 10.32L33.1413 1.16C33.1546 1.10667 33.1879 1.08 33.2413 1.08H35.4813C35.5479 1.08 35.5746 1.10667 35.5613 1.16L32.8413 14.9C32.8279 14.9667 32.7946 15 32.7413 15H30.3213ZM36.8136 15C36.7603 15 36.7336 14.9667 36.7336 14.9L36.7536 1.16C36.7536 1.10667 36.7803 1.08 36.8336 1.08H43.2536C43.3069 1.08 43.3336 1.11333 43.3336 1.18V3.42C43.3336 3.47333 43.3069 3.5 43.2536 3.5H39.1536V6.62H43.2536C43.3069 6.62 43.3336 6.64667 43.3336 6.7L43.3536 8.96C43.3536 9.01333 43.3269 9.04 43.2736 9.04H39.1536V12.54H43.2736C43.3269 12.54 43.3536 12.5733 43.3536 12.64V14.92C43.3536 14.9733 43.3269 15 43.2736 15H36.8136ZM48.1808 15C48.1274 15 48.1008 14.9667 48.1008 14.9L48.1408 1.16C48.1408 1.10667 48.1674 1.08 48.2208 1.08H50.6608C50.7141 1.08 50.7608 1.10667 50.8008 1.16L52.6208 3.8L54.4408 1.16C54.4808 1.10667 54.5274 1.08 54.5808 1.08H57.0408C57.0941 1.08 57.1208 1.10667 57.1208 1.16L57.1608 14.9C57.1608 14.9667 57.1341 15 57.0808 15H54.8208C54.7674 15 54.7408 14.9667 54.7408 14.9L54.7208 4.7L52.6208 7.74L50.5408 4.7L50.5208 14.9C50.5208 14.9667 50.4941 15 50.4408 15H48.1808ZM62.543 15.2C61.823 15.2 61.163 15.02 60.563 14.66C59.9763 14.2867 59.503 13.8 59.143 13.2C58.783 12.5867 58.603 11.9133 58.603 11.18L58.623 4.84C58.623 4.10667 58.7963 3.44 59.143 2.84C59.503 2.24 59.983 1.76 60.583 1.4C61.183 1.04 61.8363 0.86 62.543 0.86C63.263 0.86 63.9163 1.04 64.503 1.4C65.0896 1.76 65.5563 2.24 65.903 2.84C66.263 3.44 66.443 4.10667 66.443 4.84L66.463 11.18C66.463 11.9133 66.283 12.5867 65.923 13.2C65.5763 13.8 65.103 14.2867 64.503 14.66C63.9163 15.02 63.263 15.2 62.543 15.2ZM62.543 12.78C62.943 12.78 63.2896 12.62 63.583 12.3C63.8896 11.9667 64.043 11.5933 64.043 11.18L64.023 4.84C64.023 4.4 63.883 4.02667 63.603 3.72C63.323 3.41333 62.9696 3.26 62.543 3.26C62.1296 3.26 61.7763 3.41333 61.483 3.72C61.1896 4.01333 61.043 4.38667 61.043 4.84V11.18C61.043 11.62 61.1896 12 61.483 12.32C61.7763 12.6267 62.1296 12.78 62.543 12.78ZM69.7297 15C69.6764 15 69.6497 14.9667 69.6497 14.9V3.5H67.0497C66.983 3.5 66.9497 3.46667 66.9497 3.4L66.9697 1.16C66.9697 1.10667 66.9964 1.08 67.0497 1.08H74.6497C74.7164 1.08 74.7497 1.10667 74.7497 1.16V3.4C74.7497 3.46667 74.723 3.5 74.6697 3.5H72.0497L72.0697 14.9C72.0697 14.9667 72.043 15 71.9897 15H69.7297ZM78.9883 15.2C78.2683 15.2 77.6083 15.02 77.0083 14.66C76.4216 14.2867 75.9483 13.8 75.5883 13.2C75.2283 12.5867 75.0483 11.9133 75.0483 11.18L75.0683 4.84C75.0683 4.10667 75.2416 3.44 75.5883 2.84C75.9483 2.24 76.4283 1.76 77.0283 1.4C77.6283 1.04 78.2816 0.86 78.9883 0.86C79.7083 0.86 80.3616 1.04 80.9483 1.4C81.5349 1.76 82.0016 2.24 82.3483 2.84C82.7083 3.44 82.8883 4.10667 82.8883 4.84L82.9083 11.18C82.9083 11.9133 82.7283 12.5867 82.3683 13.2C82.0216 13.8 81.5483 14.2867 80.9483 14.66C80.3616 15.02 79.7083 15.2 78.9883 15.2ZM78.9883 12.78C79.3883 12.78 79.7349 12.62 80.0283 12.3C80.3349 11.9667 80.4883 11.5933 80.4883 11.18L80.4683 4.84C80.4683 4.4 80.3283 4.02667 80.0483 3.72C79.7683 3.41333 79.4149 3.26 78.9883 3.26C78.5749 3.26 78.2216 3.41333 77.9283 3.72C77.6349 4.01333 77.4883 4.38667 77.4883 4.84V11.18C77.4883 11.62 77.6349 12 77.9283 12.32C78.2216 12.6267 78.5749 12.78 78.9883 12.78Z" fill="#2F3035"/>
</g>
<defs>
<filter id="filter0_d_59_282" x="0.799805" y="0.859985" width="86.1084" height="22.34" filterUnits="userSpaceOnUse" color-interpolation-filters="sRGB">
<feFlood flood-opacity="0" result="BackgroundImageFix"/>
<feColorMatrix in="SourceAlpha" type="matrix" values="0 0 0 0 0 0 0 0 0 0 0 0 0 0 0 0 0 0 127 0" result="hardAlpha"/>
<feOffset dy="4"/>
<feGaussianBlur stdDeviation="2"/>
<feComposite in2="hardAlpha" operator="out"/>
<feColorMatrix type="matrix" values="0 0 0 0 0 0 0 0 0 0 0 0 0 0 0 0 0 0 0.25 0"/>
<feBlend mode="normal" in2="BackgroundImageFix" result="effect1_dropShadow_59_282"/>
<feBlend mode="normal" in="SourceGraphic" in2="effect1_dropShadow_59_282" result="shape"/>
</filter>
</defs>
</svg>
